<svg xmlns="http://www.w3.org/2000/svg" width="600" height="400" viewBox="0 0 600 400" role="img" aria-label="Image unavailable">
  <rect width="600" height="400" fill="#111726"/>
  <rect width="600" height="400" fill="none" stroke="#1f293d" stroke-width="2"/>
  <g fill="#00f5d4" opacity="0.5">
    <path d="M300 150a26 26 0 1 0 0.01 0zM300 168a8 8 0 1 1 0 16 8 8 0 0 1 0-16z"/>
    <path d="M210 120h180a18 18 0 0 1 18 18v124a18 18 0 0 1-18 18H210a18 18 0 0 1-18-18V138a18 18 0 0 1 18-18zm0 16a2 2 0 0 0-2 2v94l46-40 34 30 52-46 50 44V138a2 2 0 0 0-2-2z"/>
  </g>
  <text x="300" y="320" font-family="ui-monospace, monospace" font-size="18" fill="#64748b" text-anchor="middle">Image unavailable</text>
</svg>
